<svg width="196" height="78" viewBox="0 0 196 78" fill="none" xmlns="http://www.w3.org/2000/svg">
<rect width="196" height="78" rx="12" fill="#8E8E93"/>
<g clip-path="url(#clip0)">
<path d="M16 17.4697H17.988C18.1933 17.4697 18.3637 17.5163 18.499 17.6097C18.639 17.703 18.73 17.8267 18.772 17.9807L20.172 23.3007C20.2187 23.4733 20.2653 23.6577 20.312 23.8537C20.3587 24.0497 20.3937 24.255 20.417 24.4697C20.4637 24.2503 20.515 24.045 20.571 23.8537C20.627 23.6577 20.6807 23.4733 20.732 23.3007L22.384 17.9807C22.426 17.85 22.5147 17.7333 22.65 17.6307C22.79 17.5233 22.958 17.4697 23.154 17.4697H23.854C24.0593 17.4697 24.2273 17.5163 24.358 17.6097C24.4933 17.6983 24.5867 17.822 24.638 17.9807L26.276 23.3007C26.3273 23.464 26.381 23.639 26.437 23.8257C26.493 24.0077 26.542 24.2037 26.584 24.4137C26.6213 24.2083 26.6587 24.0123 26.696 23.8257C26.738 23.639 26.78 23.464 26.822 23.3007L28.222 17.9807C28.2593 17.8453 28.348 17.7263 28.488 17.6237C28.628 17.521 28.796 17.4697 28.992 17.4697H30.854L27.704 27.6687H25.562L23.644 21.3477C23.6113 21.2497 23.5763 21.1423 23.539 21.0257C23.5063 20.909 23.4737 20.7853 23.441 20.6547C23.4083 20.7853 23.3733 20.909 23.336 21.0257C23.3033 21.1423 23.2707 21.2497 23.238 21.3477L21.292 27.6687H19.15L16 17.4697Z" fill="white"/>
<path d="M34.7866 20.2977C35.3372 20.2977 35.8389 20.384 36.2916 20.5567C36.7442 20.7293 37.1316 20.9767 37.4536 21.2987C37.7802 21.6207 38.0322 22.0127 38.2096 22.4747C38.3916 22.932 38.4826 23.4477 38.4826 24.0217C38.4826 24.6003 38.3916 25.123 38.2096 25.5897C38.0322 26.0517 37.7802 26.446 37.4536 26.7727C37.1316 27.0947 36.7442 27.3443 36.2916 27.5217C35.8389 27.6943 35.3372 27.7807 34.7866 27.7807C34.2312 27.7807 33.7249 27.6943 33.2676 27.5217C32.8149 27.3443 32.4229 27.0947 32.0916 26.7727C31.7649 26.446 31.5106 26.0517 31.3286 25.5897C31.1512 25.123 31.0626 24.6003 31.0626 24.0217C31.0626 23.4477 31.1512 22.932 31.3286 22.4747C31.5106 22.0127 31.7649 21.6207 32.0916 21.2987C32.4229 20.9767 32.8149 20.7293 33.2676 20.5567C33.7249 20.384 34.2312 20.2977 34.7866 20.2977ZM34.7866 26.1707C35.2859 26.1707 35.6522 25.9957 35.8856 25.6457C36.1236 25.291 36.2426 24.7543 36.2426 24.0357C36.2426 23.317 36.1236 22.7827 35.8856 22.4327C35.6522 22.0827 35.2859 21.9077 34.7866 21.9077C34.2732 21.9077 33.8976 22.0827 33.6596 22.4327C33.4216 22.7827 33.3026 23.317 33.3026 24.0357C33.3026 24.7543 33.4216 25.291 33.6596 25.6457C33.8976 25.9957 34.2732 26.1707 34.7866 26.1707Z" fill="white"/>
<path d="M39.8137 27.6687V20.4097H41.1017C41.209 20.4097 41.2977 20.419 41.3677 20.4377C41.4423 20.4563 41.503 20.4867 41.5497 20.5287C41.601 20.566 41.6383 20.6173 41.6617 20.6827C41.6897 20.748 41.713 20.8273 41.7317 20.9207L41.8507 21.5997C42.1167 21.189 42.4153 20.8647 42.7467 20.6267C43.078 20.3887 43.4397 20.2697 43.8317 20.2697C44.163 20.2697 44.429 20.349 44.6297 20.5077L44.3497 22.1037C44.331 22.2017 44.2937 22.2717 44.2377 22.3137C44.1817 22.351 44.107 22.3697 44.0137 22.3697C43.9343 22.3697 43.841 22.3603 43.7337 22.3417C43.6263 22.3183 43.491 22.3067 43.3277 22.3067C42.7583 22.3067 42.3103 22.61 41.9837 23.2167V27.6687H39.8137Z" fill="white"/>
<path d="M47.9069 17.1897V23.0627H48.2289C48.3642 23.0627 48.4669 23.044 48.5369 23.0067C48.6115 22.9693 48.6815 22.9017 48.7469 22.8037L50.1189 20.7597C50.1982 20.6383 50.2915 20.5497 50.3989 20.4937C50.5109 20.4377 50.6509 20.4097 50.8189 20.4097H52.8069L50.9309 22.9927C50.8422 23.114 50.7442 23.2213 50.6369 23.3147C50.5342 23.408 50.4222 23.492 50.3009 23.5667C50.5109 23.7253 50.6929 23.9353 50.8469 24.1967L52.8909 27.6687H50.9309C50.7675 27.6687 50.6252 27.643 50.5039 27.5917C50.3872 27.5357 50.2915 27.44 50.2169 27.3047L48.8449 24.7357C48.7795 24.619 48.7119 24.5443 48.6419 24.5117C48.5719 24.4743 48.4669 24.4557 48.3269 24.4557H47.9069V27.6687H45.7369V17.1897H47.9069Z" fill="white"/>
<path d="M58.3813 21.9987C58.3253 22.0873 58.2646 22.1503 58.1993 22.1877C58.1386 22.225 58.0593 22.2437 57.9613 22.2437C57.8586 22.2437 57.7559 22.2227 57.6533 22.1807C57.5506 22.134 57.4386 22.085 57.3173 22.0337C57.2006 21.9823 57.0676 21.9357 56.9183 21.8937C56.7689 21.847 56.5986 21.8237 56.4073 21.8237C56.132 21.8237 55.9196 21.8773 55.7703 21.9847C55.6256 22.0873 55.5533 22.232 55.5533 22.4187C55.5533 22.554 55.5999 22.666 55.6933 22.7547C55.7913 22.8433 55.9196 22.9227 56.0783 22.9927C56.2369 23.058 56.4166 23.121 56.6173 23.1817C56.8179 23.2423 57.0233 23.31 57.2333 23.3847C57.4433 23.4593 57.6486 23.548 57.8493 23.6507C58.0499 23.7487 58.2296 23.8723 58.3883 24.0217C58.5469 24.1663 58.6729 24.3437 58.7663 24.5537C58.8643 24.7637 58.9133 25.0157 58.9133 25.3097C58.9133 25.669 58.848 26.0003 58.7173 26.3037C58.5866 26.607 58.3906 26.8683 58.1293 27.0877C57.8726 27.307 57.553 27.4773 57.1703 27.5987C56.7923 27.72 56.3559 27.7807 55.8613 27.7807C55.6139 27.7807 55.3666 27.7573 55.1193 27.7107C54.8719 27.664 54.6316 27.601 54.3983 27.5217C54.1696 27.4423 53.9573 27.349 53.7613 27.2417C53.5653 27.1297 53.3973 27.0107 53.2573 26.8847L53.7613 26.0867C53.822 25.9933 53.8943 25.921 53.9783 25.8697C54.0623 25.8137 54.1719 25.7857 54.3073 25.7857C54.4333 25.7857 54.5453 25.8137 54.6433 25.8697C54.746 25.9257 54.8556 25.9863 54.9723 26.0517C55.0889 26.117 55.2243 26.1777 55.3783 26.2337C55.537 26.2897 55.7353 26.3177 55.9733 26.3177C56.1413 26.3177 56.2836 26.3013 56.4003 26.2687C56.517 26.2313 56.6103 26.1823 56.6803 26.1217C56.7503 26.061 56.8016 25.9933 56.8343 25.9187C56.8669 25.844 56.8833 25.767 56.8833 25.6877C56.8833 25.543 56.8343 25.424 56.7363 25.3307C56.6383 25.2373 56.51 25.158 56.3513 25.0927C56.1926 25.0227 56.0106 24.9597 55.8053 24.9037C55.6046 24.843 55.3993 24.7753 55.1893 24.7007C54.9793 24.626 54.7716 24.5373 54.5663 24.4347C54.3656 24.3273 54.1859 24.1943 54.0273 24.0357C53.8686 23.8723 53.7403 23.674 53.6423 23.4407C53.5443 23.2073 53.4953 22.925 53.4953 22.5937C53.4953 22.2857 53.5536 21.994 53.6703 21.7187C53.7916 21.4387 53.9713 21.1937 54.2093 20.9837C54.4473 20.7737 54.7459 20.608 55.1053 20.4867C55.4646 20.3607 55.8846 20.2977 56.3653 20.2977C56.6266 20.2977 56.8786 20.321 57.1213 20.3677C57.3686 20.4143 57.5996 20.4797 57.8143 20.5637C58.0289 20.6477 58.2249 20.748 58.4023 20.8647C58.5796 20.9767 58.736 21.1003 58.8713 21.2357L58.3813 21.9987Z" fill="white"/>
<path d="M62.2563 20.4097H63.9923C64.1463 20.4097 64.2793 20.4447 64.3913 20.5147C64.5033 20.5847 64.571 20.6757 64.5943 20.7877L65.3223 24.0427C65.3783 24.29 65.4297 24.5303 65.4763 24.7637C65.523 24.997 65.565 25.228 65.6023 25.4567C65.6677 25.228 65.7353 24.9993 65.8053 24.7707C65.88 24.5373 65.9523 24.2947 66.0223 24.0427L66.9323 20.7807C66.9603 20.6733 67.028 20.5847 67.1353 20.5147C67.2427 20.44 67.3663 20.4027 67.5063 20.4027H68.4723C68.6263 20.4027 68.757 20.44 68.8643 20.5147C68.9763 20.5847 69.0463 20.6733 69.0743 20.7807L69.9423 24.0427C70.0077 24.29 70.073 24.5303 70.1383 24.7637C70.2083 24.997 70.2737 25.2327 70.3343 25.4707C70.3717 25.2373 70.416 25.0063 70.4673 24.7777C70.5233 24.5443 70.5817 24.2993 70.6423 24.0427L71.4123 20.7877C71.4357 20.6757 71.501 20.5847 71.6083 20.5147C71.7203 20.4447 71.8463 20.4097 71.9863 20.4097H73.6383L71.3843 27.6687H69.6203C69.527 27.6687 69.4477 27.6407 69.3823 27.5847C69.317 27.5287 69.2657 27.4353 69.2283 27.3047L68.1923 23.6857C68.1457 23.5223 68.1013 23.3613 68.0593 23.2027C68.0173 23.044 67.98 22.8853 67.9473 22.7267C67.9147 22.89 67.8773 23.0533 67.8353 23.2167C67.798 23.3753 67.7537 23.5363 67.7023 23.6997L66.6523 27.3047C66.5823 27.5473 66.4283 27.6687 66.1903 27.6687H64.5103L62.2563 20.4097Z" fill="white"/>
<path d="M76.865 20.4097V27.6687H74.695V20.4097H76.865ZM77.117 18.4217C77.117 18.5943 77.082 18.7577 77.012 18.9117C76.942 19.061 76.8463 19.194 76.725 19.3107C76.6037 19.4227 76.4613 19.5137 76.298 19.5837C76.1393 19.649 75.969 19.6817 75.787 19.6817C75.6097 19.6817 75.444 19.649 75.29 19.5837C75.136 19.5137 74.9983 19.4227 74.877 19.3107C74.7603 19.194 74.667 19.061 74.597 18.9117C74.5317 18.7577 74.499 18.5943 74.499 18.4217C74.499 18.2443 74.5317 18.0787 74.597 17.9247C74.667 17.7707 74.7603 17.6353 74.877 17.5187C74.9983 17.402 75.136 17.311 75.29 17.2457C75.444 17.1803 75.6097 17.1477 75.787 17.1477C75.969 17.1477 76.1393 17.1803 76.298 17.2457C76.4613 17.311 76.6037 17.402 76.725 17.5187C76.8463 17.6353 76.942 17.7707 77.012 17.9247C77.082 18.0787 77.117 18.2443 77.117 18.4217Z" fill="white"/>
<path d="M81.3052 27.7807C80.9599 27.7807 80.6542 27.7317 80.3882 27.6337C80.1269 27.531 79.9052 27.3887 79.7232 27.2067C79.5459 27.02 79.4105 26.796 79.3172 26.5347C79.2239 26.2733 79.1772 25.9817 79.1772 25.6597V21.9077H78.5612C78.4492 21.9077 78.3535 21.8727 78.2742 21.8027C78.1949 21.728 78.1552 21.6207 78.1552 21.4807V20.6337L79.3102 20.4097L79.7372 18.6387C79.7932 18.4147 79.9519 18.3027 80.2132 18.3027H81.3472V20.4237H83.1112V21.9077H81.3472V25.5127C81.3472 25.6807 81.3869 25.8207 81.4662 25.9327C81.5502 26.04 81.6692 26.0937 81.8232 26.0937C81.9025 26.0937 81.9679 26.0867 82.0192 26.0727C82.0752 26.054 82.1219 26.0353 82.1592 26.0167C82.2012 25.9933 82.2385 25.9747 82.2712 25.9607C82.3085 25.942 82.3505 25.9327 82.3972 25.9327C82.4625 25.9327 82.5139 25.949 82.5512 25.9817C82.5932 26.0097 82.6352 26.0563 82.6772 26.1217L83.3352 27.1507C83.0552 27.3607 82.7402 27.5193 82.3902 27.6267C82.0402 27.7293 81.6785 27.7807 81.3052 27.7807Z" fill="white"/>
<path d="M84.5027 27.6687V17.1897H86.6727V21.0467C86.934 20.8227 87.2163 20.643 87.5197 20.5077C87.8277 20.3677 88.194 20.2977 88.6187 20.2977C89.0153 20.2977 89.3653 20.3677 89.6687 20.5077C89.9767 20.643 90.2357 20.8343 90.4457 21.0817C90.6557 21.3243 90.8143 21.616 90.9217 21.9567C91.029 22.2927 91.0827 22.659 91.0827 23.0557V27.6687H88.9127V23.0557C88.9127 22.701 88.831 22.4257 88.6677 22.2297C88.5043 22.029 88.264 21.9287 87.9467 21.9287C87.7087 21.9287 87.4847 21.98 87.2747 22.0827C87.0647 22.1853 86.864 22.323 86.6727 22.4957V27.6687H84.5027Z" fill="white"/>
<path d="M33.4667 50.8381V60.5052H25.34V50.8381L16 33.7807H25.3015L29.5574 41.9621C30.9825 39.3185 32.3883 36.347 33.7363 33.7807H42.6527L33.4667 50.8381Z" fill="white"/>
<path d="M58.8484 60.5052L51.2416 48.0299V60.5052H43.5577V33.7807H50.4905L58.0973 46.0632V33.7807H65.7426V60.5052H58.8484Z" fill="white"/>
<path d="M85.0581 55.7619H77.2202L75.6411 60.5052H66.9752L76.7388 33.7807H86.0788L95.6113 60.5052H86.5795L85.0581 55.7619ZM81.1488 43.5373L79.1075 49.6496H83.2094L81.1488 43.5373Z" fill="white"/>
<path d="M107.686 60.5052H96.8053V33.7807H107.127C113.232 33.7807 116.776 36.3837 116.776 41.127C116.776 43.4987 115.562 45.4269 113.54 46.8923C115.62 48.0685 116.93 50.4401 116.93 52.8504C116.949 57.7672 113.482 60.5052 107.686 60.5052ZM106.55 40.0087H104.585V44.3471H106.685C107.705 44.3471 108.61 43.518 108.61 42.0526C108.591 40.9149 107.84 40.0087 106.55 40.0087ZM106.376 49.8424H104.566V54.2965H106.261C107.956 54.2965 108.861 53.4674 108.861 52.1177C108.861 50.7101 108.167 49.8424 106.376 49.8424Z" fill="white"/>
<path d="M117.18 56.4854C117.18 54.0236 119.144 52.0463 121.59 52.0463C124.036 52.0463 126 54.0236 126 56.4854C126 58.9472 124.036 60.9245 121.59 60.9245C119.164 60.9245 117.18 58.9472 117.18 56.4854Z" fill="white"/>
</g>
<g clip-path="url(#clip1)">
<path d="M171.132 37.0411H162.719C162.534 37.0411 162.318 37.171 162.22 37.3225L157.179 45.635C157.081 45.7865 156.94 45.7865 156.843 45.635L151.856 37.3225C151.769 37.171 151.541 37.0411 151.368 37.0411H142.912C142.727 37.0411 142.673 37.1601 142.771 37.3117L152.734 52.1616C152.831 52.3131 152.918 52.5729 152.918 52.7569V61.6754C152.918 61.8486 153.07 62.0002 153.243 62.0002H160.8C160.973 62.0002 161.125 61.8486 161.125 61.6754V52.7569C161.125 52.5837 161.212 52.3131 161.309 52.1616L171.283 37.3117C171.381 37.1601 171.316 37.0411 171.132 37.0411Z" fill="white"/>
<path d="M146.728 46.9229C146.663 46.8796 146.543 46.8471 146.348 46.8471C142.619 46.8363 143.237 50.4189 143.389 51.7177C144.657 51.4038 148.246 50.7328 146.923 47.2476C146.858 47.096 146.782 46.9662 146.728 46.9229Z" fill="white"/>
<path d="M144.603 44.3145C144.7 44.0655 144.776 43.8166 144.755 43.6975C144.733 43.5785 144.635 43.3837 144.44 43.1455C140.44 38.5131 137.025 43.3295 135.713 44.9747C137.437 46.2086 142.055 49.8778 144.603 44.3145Z" fill="white"/>
<path d="M140.83 38.8702C140.949 38.7079 141.047 38.5455 141.058 38.4589C141.069 38.3723 141.025 38.2208 140.906 38.0152C138.683 34.0754 135.268 36.8787 134 37.8203C135.084 38.9893 137.946 42.3554 140.83 38.8702Z" fill="white"/>
<path d="M144.679 28.0358C144.874 28.025 145.058 27.9925 145.134 27.9492C145.21 27.8951 145.297 27.7652 145.373 27.5595C146.966 23.3275 142.63 22.5158 141.09 22.1478C140.906 23.7064 140.147 28.0574 144.679 28.0358Z" fill="white"/>
<path d="M150.793 26.6721C151.01 26.7154 151.216 26.737 151.314 26.6938C151.411 26.6613 151.541 26.5422 151.682 26.3258C154.566 22.1587 150.056 20.1022 148.484 19.2796C147.866 20.9465 145.871 25.4707 150.793 26.6721Z" fill="white"/>
<path d="M151.433 35.3092C151.704 35.2876 151.953 35.2443 152.062 35.1793C152.159 35.1144 152.289 34.9412 152.419 34.6598C154.88 29.0532 149.059 28.0683 146.999 27.6029C146.63 29.681 145.308 35.4283 151.433 35.3092Z" fill="white"/>
<path d="M156.561 40.786C156.734 40.8834 156.897 40.97 156.984 40.97C157.07 40.97 157.222 40.9159 157.406 40.786C161.136 38.2209 158.035 35.082 156.984 33.9023C155.943 35.082 152.831 38.2209 156.561 40.786Z" fill="white"/>
<path d="M156.995 25.7412C155.943 26.921 152.842 30.0706 156.572 32.625C156.745 32.7224 156.908 32.809 156.995 32.809C157.081 32.809 157.233 32.7549 157.417 32.625C161.147 30.0706 158.046 26.921 156.995 25.7412Z" fill="white"/>
<path d="M156.442 24.1934C156.658 24.3125 156.875 24.4099 156.984 24.4099C157.092 24.4099 157.287 24.3449 157.526 24.1934C162.296 21.1412 158.328 17.4071 156.984 16C155.65 17.4071 151.682 21.152 156.442 24.1934Z" fill="white"/>
<path d="M162.686 26.6937C162.784 26.7262 162.99 26.7045 163.207 26.6721C168.129 25.4707 166.145 20.9464 165.516 19.2904C163.944 20.113 159.434 22.1695 162.318 26.3365C162.469 26.5422 162.6 26.6612 162.686 26.6937Z" fill="white"/>
<path d="M161.949 35.1794C162.047 35.2443 162.307 35.2876 162.578 35.3092C168.703 35.4283 167.381 29.6702 167.023 27.6029C164.963 28.0683 159.141 29.0532 161.602 34.6598C161.711 34.9412 161.841 35.1144 161.949 35.1794Z" fill="white"/>
<path d="M168.866 27.9383C168.942 27.9925 169.126 28.0141 169.321 28.0249C173.842 28.0466 173.094 23.6955 172.91 22.1261C171.37 22.5049 167.023 23.3167 168.627 27.5379C168.714 27.7652 168.801 27.8951 168.866 27.9383Z" fill="white"/>
<path d="M169.82 33.0471C169.798 33.361 169.831 33.5667 169.885 33.6749C169.939 33.7831 170.145 33.9347 170.373 34.0754C175.739 37.041 177.257 31.337 177.907 29.3347C175.88 28.7935 170.264 26.9535 169.82 33.0471Z" fill="white"/>
<path d="M173.094 38.026C172.986 38.2208 172.942 38.3723 172.942 38.4698C172.953 38.5563 173.051 38.7187 173.17 38.8811C176.054 42.3554 178.916 38.9893 180 37.842C178.731 36.8895 175.316 34.0862 173.094 38.026Z" fill="white"/>
<path d="M169.571 43.1563C169.365 43.3944 169.267 43.5784 169.256 43.7083C169.234 43.8273 169.31 44.0763 169.408 44.3252C171.956 49.8885 176.574 46.2085 178.298 44.9855C176.975 43.3295 173.56 38.513 169.571 43.1563Z" fill="white"/>
<path d="M167.652 46.8471C167.467 46.8471 167.337 46.8796 167.272 46.9229C167.207 46.9662 167.142 47.096 167.066 47.2476C165.743 50.7328 169.332 51.4038 170.6 51.7177C170.763 50.4189 171.381 46.8363 167.652 46.8471Z" fill="white"/>
<path d="M143.627 34.0862C143.855 33.9347 144.061 33.794 144.115 33.6857C144.169 33.5775 144.202 33.361 144.18 33.058C143.725 26.9535 138.12 28.7935 136.082 29.3455C136.743 31.3479 138.261 37.041 143.627 34.0862Z" fill="white"/>
</g>
<defs>
<clipPath id="clip0">
<rect x="16" y="17.1477" width="110" height="43.7046" fill="white"/>
</clipPath>
<clipPath id="clip1">
<path d="M134 16H180V62H134V16Z" fill="white"/>
</clipPath>
</defs>
</svg>
